<?xml version="1.0" encoding="UTF-8" standalone="no"?>
<!DOCTYPE svg PUBLIC "-//W3C//DTD SVG 1.1//EN" "http://www.w3.org/Graphics/SVG/1.1/DTD/svg11.dtd">
<svg width="100%" height="100%" viewBox="0 0 390 392" version="1.1" xmlns="http://www.w3.org/2000/svg" xmlns:xlink="http://www.w3.org/1999/xlink" xml:space="preserve" xmlns:serif="http://www.serif.com/" style="fill-rule:evenodd;clip-rule:evenodd;stroke-linejoin:round;stroke-miterlimit:2;">
    <path d="M180.894,41.728C147.215,43.48 117.823,56.183 92.16,77.504C62.045,102.524 43.377,134.518 37.301,173.287C31.136,212.616 38.268,249.567 59.826,283.264C85.266,323.028 121.122,347.798 167.678,356.595C173.381,357.672 179.233,358.01 185.03,358.522C187.945,358.78 189.042,360.069 188.905,363.001C188.359,374.769 192.024,374.627 176.947,373.301C143.41,370.35 113.796,357.786 87.483,337.177C60.578,316.104 41.702,289.164 29.841,257.172C21.842,235.597 19.209,213.289 20.113,190.438C22.972,118.143 70.864,56.1 139.125,34.065C151.688,30.01 165.135,28.69 178.964,26.078C180.501,25.965 181.248,25.881 181.995,25.797C185.485,26.075 190.019,24.972 189.055,32.011C188.927,40.116 188.926,40.112 181.784,41.32C181.473,41.372 181.19,41.588 180.894,41.728Z" style="fill:rgb(61,101,158);fill-rule:nonzero;"/>
    <path d="M351.779,235.002C352.763,229.1 354.129,223.233 354.673,217.291C360.138,157.543 339.392,108.96 291.771,72.378C267.986,54.107 240.55,44.463 209.983,41.144C207.226,40.904 205.304,40.723 203.136,40.518C202.973,37.817 202.826,35.403 202.68,32.988C202.813,30.837 202.946,28.685 203.078,26.543C275.024,24.051 369.888,87.567 370.585,197.56C367.565,198.555 365.025,199.071 363.708,199.339C362.957,205.563 362.291,211.103 361.619,216.643C361.422,218.269 360.94,219.911 361.047,221.516C361.51,228.51 355.709,231.093 351.779,235.002Z" style="fill:rgb(218,152,64);fill-rule:nonzero;"/>
    <path d="M351.588,235.292C355.709,231.093 361.51,228.51 361.047,221.516C360.94,219.911 361.422,218.269 361.619,216.643C362.291,211.103 362.957,205.563 363.708,199.339C365.025,199.071 367.565,198.555 370.503,198.021C371.367,225.252 365.679,251.111 352.831,275.797C346.083,278.902 345.187,280.96 348.317,285.145C328.325,320.865 299.319,346.361 261.45,361.85C243.734,369.096 225.361,373.312 206.23,374.17C205.1,374.22 203.965,374.176 202.094,374.176C202.094,370.704 202.315,367.413 202.035,364.164C201.729,360.622 202.922,359.494 206.564,358.853C219.793,356.524 233.108,354.292 246.024,350.705C254.905,348.238 263.182,343.592 272.464,339.912C274.164,339.371 277.252,341.382 275.693,337.824C282.59,332.971 289.488,328.118 296.869,323.433C298.896,323.492 300.798,323.873 301.853,323.098C302.525,322.604 301.942,320.401 301.922,318.964C305.431,315.457 308.94,311.951 312.825,308.616C314.713,308.337 317.131,308.289 317.546,307.353C318.39,305.446 322.978,304.19 319.226,301.074C321.145,298.466 323.063,295.857 325.612,293.046C328.084,292.002 331.262,291.794 328.231,288.644C328.628,287.9 329.025,287.157 330.053,286.205C335.245,285.162 340.065,279.878 340.93,274.149C341.225,272.193 340.374,270.065 340.048,268.016C340.827,266.174 341.607,264.332 342.981,262.2C349.59,259.286 354.812,248.612 352.775,242.749C352.502,241.964 351.097,241.573 350.216,240.999C350.609,239.193 351.003,237.387 351.588,235.292Z" style="fill:rgb(219,154,65);fill-rule:nonzero;"/>
    <path d="M191.095,183.43C193.55,183.465 196.005,183.5 199.174,183.687C202.736,185.412 206.107,186.454 208.34,188.653C216.804,196.987 215.242,209.53 204.833,218.256C202.009,219.181 199.412,219.783 196.816,220.385C194.874,220.189 192.932,219.993 190.346,219.536C179.904,215.519 177.127,207.647 177.464,197.788C180.131,193.724 182.598,189.937 185.369,186.143C186.13,185.782 186.587,185.43 187.359,185.044C188.815,184.484 189.955,183.957 191.095,183.43Z" style="fill:rgb(252,252,251);fill-rule:nonzero;"/>
    <path d="M205.06,217.933C215.242,209.53 216.804,196.987 208.34,188.653C206.107,186.454 202.736,185.412 199.641,183.67C200.566,177.924 201.736,172.346 203.376,166.45C205.525,166.428 207.205,166.725 208.885,167.021C207.678,171.81 206.471,176.599 205.264,181.388C205.49,181.632 205.715,181.875 205.941,182.118C206.962,181.027 208.253,180.085 208.959,178.818C211.827,173.668 214.516,168.419 217.831,163.12C218.391,163.034 218.874,163 218.874,163C217.35,168.163 215.825,173.325 214.648,178.734C214.995,178.981 215.04,179.009 214.787,178.671C213.961,178.902 213.389,179.471 212.634,180.296C214.294,182.031 216.137,183.512 217.98,184.992C219.042,185.263 220.104,185.533 221.534,186.036C221.776,187.872 221.651,189.475 221.488,191.576C222.798,190.681 223.842,189.968 224.886,189.256C228.676,187.859 232.467,186.463 236.629,185.467C236.655,188.174 236.309,190.482 235.963,192.79C233.115,194.239 230.266,195.687 227.418,197.136C227.512,197.537 227.606,197.937 227.7,198.338C230.519,198.045 233.338,197.753 236.56,197.889C236.644,200.548 236.325,202.777 235.623,205.085C234.203,205.141 233.166,205.119 231.723,205.043C226.895,206.342 222.473,207.695 217.623,209.179C219.985,209.866 221.987,210.448 223.981,211.398C222.595,214.327 221.217,216.888 219.491,219.327C217.271,218.442 215.399,217.678 213.526,216.915C213.37,217.14 213.214,217.366 213.058,217.592C215.832,221.168 218.607,224.743 221.123,228.677C219.642,229.834 218.419,230.633 217.196,231.432C215.875,230.106 214.554,228.78 213.071,226.806C210.293,223.416 207.677,220.675 205.06,217.933Z" style="fill:rgb(225,164,68);fill-rule:nonzero;"/>
    <path d="M124.012,200.963C131.045,200.973 138.078,200.983 145.841,201.264C147.809,201.534 149.047,201.534 150.285,201.534C150.276,201.139 150.267,200.744 150.258,200.349C148.884,200.215 147.511,200.08 146.138,199.946C128.988,196.713 111.854,193.384 94.673,190.323C91.022,189.673 87.175,190.189 83.461,189.782C81.824,189.603 79.778,188.84 78.879,187.629C78.168,186.67 78.338,183.934 79.17,183.226C80.303,182.263 82.556,181.936 84.128,182.274C100.338,185.76 116.496,189.487 132.694,193.031C139.516,194.524 146.398,195.741 153.64,197.588C154.363,200.534 154.698,202.974 155.033,205.415C144.016,205.179 133,204.942 121.535,204.312C122.062,202.933 123.037,201.948 124.012,200.963Z" style="fill:rgb(58,107,172);fill-rule:nonzero;"/>
    <path d="M177.264,198.065C177.127,207.647 179.904,215.519 189.926,219.536C189.146,223.949 188.141,228.1 186.625,232.62C185.084,232.993 184.053,232.997 183.022,233.001C183.102,231.922 183.182,230.844 183.432,229.221C183.782,228.47 183.912,228.236 183.992,227.974C184.337,225.919 184.681,223.863 185.272,221.354C185.608,220.364 185.699,219.827 185.79,219.29C185.201,219.878 184.612,220.465 184.022,221.053C178.961,231.917 173.9,242.782 168.291,253.855C166.844,253.713 165.946,253.362 165.047,253.012C168.087,245.664 171.126,238.316 174.393,230.416C174.569,229.419 174.517,228.975 174.466,228.531C174.136,228.863 173.806,229.195 173.476,229.527C171.911,231.268 170.346,233.009 168.165,234.868C166.626,234.221 165.704,233.456 164.781,232.691C166.8,229.658 168.82,226.626 171.316,223.229C172.475,221.97 173.156,221.076 173.837,220.182C173.58,219.988 173.322,219.793 173.065,219.599C172.367,220.421 171.668,221.242 170.97,222.064C170.535,222.043 170.1,222.022 169.347,221.661C169.7,219.556 170.371,217.79 171.355,216.006C172.244,215.592 172.821,215.196 173.397,214.8C172.599,214.859 171.801,214.917 170.71,215.107C169.612,215.492 168.806,215.746 168.001,215.602C168.005,214.139 168.009,213.076 168.401,212.007C170.353,211.554 172.154,211.444 173.407,210.558C174.463,209.811 174.881,208.162 175.582,206.912C174.394,206.269 173.206,205.625 172.01,204.587C171.667,202.129 171.332,200.066 171.444,198.002C173.681,198.022 175.472,198.044 177.264,198.065Z" style="fill:rgb(62,112,180);fill-rule:nonzero;"/>
    <path d="M218.28,184.839C216.137,183.512 214.294,182.031 212.999,180.365C214.045,179.789 214.542,179.399 215.04,179.009C215.04,179.009 214.995,178.981 214.981,179.002C221.329,171.434 227.7,163.852 234.049,156.251C237.464,152.161 240.952,148.124 244.184,143.892C245.528,142.132 245.953,139.628 247.399,137.998C249.362,135.785 251.905,134.087 254.878,132.111C256.392,132.742 257.228,133.43 258.063,134.117C258.717,138.028 257.174,140.33 253.724,142.57C250.392,144.735 247.898,148.304 245.31,151.48C236.335,162.496 227.48,173.609 218.28,184.839Z" style="fill:rgb(227,172,68);fill-rule:nonzero;"/>
    <path d="M110.06,139.86C123.222,150.016 136.376,160.183 149.552,170.323C156.928,175.999 164.34,181.631 171.763,187.881C171.589,189.844 171.387,191.207 171.052,193.463C168.876,192.314 167.013,191.33 165.149,190.347C160.815,186.205 156.746,181.735 152.096,177.984C138.249,166.812 124.174,155.924 110.075,144.184C109.994,142.249 110.027,141.054 110.06,139.86Z" style="fill:rgb(53,100,164);fill-rule:nonzero;"/>
    <path d="M135.104,225.376C120.946,229.559 106.756,233.642 92.64,237.962C83.316,240.816 74.119,244.084 64.805,246.972C63.457,247.39 61.542,247.11 60.326,246.402C59.587,245.972 59.065,243.696 59.542,242.966C60.446,241.583 62.163,239.752 63.501,239.785C76.824,240.115 88.441,233.539 100.982,230.769C112.15,228.303 123.119,224.941 134.59,222.403C135.037,223.68 135.071,224.528 135.104,225.376Z" style="fill:rgb(53,100,163);fill-rule:nonzero;"/>
    <path d="M145.133,241.28C129.359,252.983 113.514,264.591 97.86,276.451C93.676,279.621 90.197,283.707 86.139,287.063C84.783,288.184 82.578,288.894 80.861,288.731C79.83,288.634 77.973,286.086 78.266,285.341C79.043,283.368 80.455,281.253 82.211,280.13C87.741,276.593 93.845,273.908 99.186,270.13C114.002,259.65 128.545,248.784 143.785,238.235C144.627,239.36 144.88,240.32 145.133,241.28Z" style="fill:rgb(57,109,178);fill-rule:nonzero;"/>
    <path d="M135.497,225.313C135.071,224.528 135.037,223.68 135.002,222.41C144.176,219.094 153.353,216.199 163.221,213.114C165.275,212.615 166.637,212.307 168.001,212C168.002,212.002 168.012,212.012 168.012,212.012C168.009,213.076 168.005,214.139 167.874,215.879C167.512,217.321 167.277,218.087 166.76,218.951C166.309,219.372 166.139,219.695 165.988,220.024C166.007,220.03 166.026,219.997 166.026,219.997C160.593,222.608 155.072,225.053 149.746,227.865C140.363,232.819 131.098,237.998 121.404,242.684C120.978,241.343 120.93,240.401 120.882,239.458C127.633,235.321 134.396,231.204 141.125,227.032C142.623,226.104 144.001,224.984 145.068,223.023C142.008,223.765 138.948,224.508 135.497,225.313Z" style="fill:rgb(58,107,172);fill-rule:nonzero;"/>
    <path d="M118.978,170.102C116.324,168.5 113.748,166.746 110.997,165.333C107.484,163.53 103.669,162.269 100.301,160.247C98.553,159.199 97.276,157.13 96.259,155.265C96.005,154.8 97.76,152.397 98.29,152.496C100.406,152.892 102.582,153.642 104.394,154.796C106.412,156.081 107.851,158.303 109.9,159.507C124.753,168.235 139.695,176.809 154.796,186.065C154.002,188.43 153.021,190.164 152.04,191.898C149.823,191.218 147.605,190.538 145.149,189.25C146.197,182.882 140.957,182.981 137.757,180.803C131.306,177.111 125.142,173.607 118.978,170.102Z" style="fill:rgb(59,112,180);fill-rule:nonzero;"/>
    <path d="M159.021,211.722C142.62,214.456 126.207,217.118 109.831,219.99C106.803,220.52 103.983,222.22 100.956,222.778C98.754,223.183 96.305,222.842 94.116,222.268C93.616,222.136 93.162,218.75 93.658,218.446C95.578,217.27 97.836,216.325 100.066,216.033C107.9,215.009 115.804,214.504 123.626,213.409C135.154,211.795 146.635,209.844 158.571,208.43C159.011,209.79 159.016,210.756 159.021,211.722Z" style="fill:rgb(53,100,164);fill-rule:nonzero;"/>
    <path d="M191.053,183.012C189.955,183.957 188.815,184.484 187.224,184.828C186.516,184.425 186.259,184.205 186.001,183.74C186,183.495 186,183.005 186,183.005C184.088,175.679 182.201,168.345 180.257,161.027C177.496,150.627 174.694,140.239 172.317,129.43C174.511,129.335 176.298,129.657 178.084,129.978C180.363,140.911 182.422,151.896 185.001,162.757C186.595,169.466 188.981,175.988 191.053,183.012Z" style="fill:rgb(63,115,180);fill-rule:nonzero;"/>
    <path d="M178.299,275.039C176.769,283.86 174.99,292.648 173.79,301.514C172.845,308.492 172.762,315.583 171.971,322.586C171.755,324.494 170.732,326.662 169.363,327.95C168.605,328.664 165.569,328.375 164.968,327.533C163.877,326.005 163.084,323.558 163.477,321.787C166.889,306.426 170.593,291.13 174.715,275.42C176.246,275.03 177.272,275.034 178.299,275.039Z" style="fill:rgb(59,111,176);fill-rule:nonzero;"/>
    <path d="M239.04,305.016C235.417,296.194 231.725,287.399 228.188,278.542C223.589,267.027 219.112,255.463 214.995,243.505C216.384,243.02 217.36,242.948 218.336,242.877C222.783,253.623 227.32,264.334 231.651,275.128C235.058,283.621 238.23,292.209 241.45,300.776C241.779,301.652 241.72,302.674 241.255,303.934C240.126,304.498 239.583,304.757 239.04,305.016Z" style="fill:rgb(199,109,45);fill-rule:nonzero;"/>
    <path d="M93.01,203.963C82.388,203.968 71.761,203.819 61.143,204.058C57.084,204.15 53.059,205.369 48.991,205.605C46.878,205.728 44.356,205.336 42.703,204.189C41.814,203.573 41.623,200.202 42.455,199.271C43.648,197.937 46.102,197.002 47.954,197.099C64.32,197.957 80.672,199.081 97.49,200.51C97.634,201.931 97.316,202.969 96.998,204.006C96.552,204.026 96.106,204.045 95.169,203.835C94.121,203.725 93.566,203.844 93.01,203.963Z" style="fill:rgb(57,110,178);fill-rule:nonzero;"/>
    <path d="M224.957,188.897C223.842,189.968 222.798,190.681 221.488,191.576C221.651,189.475 221.776,187.872 221.875,185.871C237.436,173.446 253.023,161.418 269.223,149.303C270.644,149.858 271.452,150.499 272.26,151.14C270.965,152.563 269.847,154.217 268.346,155.374C253.943,166.476 239.476,177.495 224.957,188.897Z" style="fill:rgb(206,128,52);fill-rule:nonzero;"/>
    <path d="M185.668,182.932C186,183.005 186,183.495 185.777,183.952C185.391,184.989 185.228,185.57 185.065,186.15C182.598,189.937 180.131,193.724 177.464,197.788C175.472,198.044 173.681,198.022 171.147,198.125C168.56,197.852 166.717,197.455 164.873,197.059C160.776,195.493 156.679,193.927 152.311,192.129C153.021,190.164 154.002,188.43 154.992,186.346C158.128,187.394 161.254,188.793 164.765,190.269C167.013,191.33 168.876,192.314 171.052,193.463C171.387,191.207 171.589,189.844 171.927,188.17C172.48,187.216 173.386,186.38 173.223,185.962C172.759,184.777 171.859,183.763 171.369,182.353C172.749,180.988 173.89,179.952 175.031,178.917C175.331,178.753 175.631,178.589 176.332,178.043C177.824,176.773 178.915,175.884 180.007,174.996C181.783,177.617 183.559,180.238 185.668,182.932M179.649,183.013C179.292,181.834 178.936,180.655 178.58,179.476C177.987,179.761 177.395,180.047 176.802,180.333C177.6,181.372 178.398,182.41 179.649,183.013Z" style="fill:rgb(64,115,182);fill-rule:nonzero;"/>
    <path d="M330.123,157.285C319.244,161.247 308.332,165.122 297.498,169.203C290.185,171.959 282.982,175.007 275.229,177.67C274.082,176.57 273.435,175.722 272.789,174.875C285.871,169.365 298.997,163.957 312.015,158.299C317.556,155.891 322.87,152.962 328.637,150.645C329.366,153.109 329.744,155.197 330.123,157.285Z" style="fill:rgb(197,108,44);fill-rule:nonzero;"/>
    <path d="M202.977,224.908C207.594,243.354 212.212,261.799 216.42,280.624C214.861,280.996 213.712,280.987 212.563,280.979C208.521,265.125 204.481,249.271 200.434,233.418C199.616,230.216 198.767,227.022 198.293,223.407C200.296,223.174 203.055,220.841 202.977,224.908Z" style="fill:rgb(205,116,48);fill-rule:nonzero;"/>
    <path d="M248.146,237.575C263.79,249.085 279.433,260.596 294.973,272.541C293.948,273.575 293.026,274.174 292.104,274.774C277.092,263.907 262.081,253.039 247.073,241.51C247.433,239.756 247.79,238.665 248.146,237.575Z" style="fill:rgb(195,112,46);fill-rule:nonzero;"/>
    <path d="M142.906,97.015C147.248,106.058 151.591,115.101 155.963,124.88C155.204,126.473 154.416,127.329 153.628,128.185C151.498,123.879 149.317,119.597 147.249,115.262C143.256,106.891 139.414,98.446 135.3,90.135C134.469,88.456 132.399,87.411 131.467,85.754C130.577,84.173 129.72,81.963 130.181,80.43C130.53,79.268 133.157,77.872 134.437,78.145C135.979,78.474 137.816,80.218 138.387,81.769C139.967,86.062 140.955,90.572 142.191,95.631C142.439,96.516 142.673,96.765 142.906,97.015Z" style="fill:rgb(57,110,178);fill-rule:nonzero;"/>
    <path d="M290.01,235.949C273.607,230.87 257.208,225.777 240.796,220.725C237.487,219.707 234.129,218.848 230.614,217.629C230.932,216.301 231.431,215.26 232.314,214.222C245.107,217.882 257.515,221.537 269.922,225.193C272.855,226.187 275.789,227.182 279.277,228.371C280.206,228.651 280.58,228.737 280.954,228.823C283.758,229.76 286.561,230.696 289.684,232.213C290.005,233.845 290.008,234.897 290.01,235.949Z" style="fill:rgb(197,112,46);fill-rule:nonzero;"/>
    <path d="M153.703,128.557C154.416,127.329 155.204,126.473 156.034,125.232C158.377,129.57 160.698,134.283 162.977,139.017C168.631,150.767 174.265,162.526 179.957,174.639C178.915,175.884 177.824,176.773 176.48,177.823C170.558,165.878 164.852,153.789 159.238,141.657C157.3,137.468 155.591,133.174 153.703,128.557Z" style="fill:rgb(54,101,165);fill-rule:nonzero;"/>
    <path d="M234.32,80.475C230.766,92.477 227.213,104.479 223.388,116.961C223.039,117.607 222.997,117.781 222.988,117.963C221.972,121.753 220.956,125.542 219.642,129.798C219.187,130.434 219.074,130.63 219.007,130.853C219.007,130.853 218.675,131.079 218.211,130.931C217.153,130.184 216.558,129.584 215.964,128.984C219.71,115.809 223.645,102.683 227.109,89.434C228.461,84.263 228.756,78.816 230.147,73.353C231.948,75.633 233.134,78.054 234.32,80.475Z" style="fill:rgb(210,114,47);fill-rule:nonzero;"/>
    <path d="M309.001,199.982C316.119,199.556 323.252,199.293 330.349,198.635C334.081,198.288 337.725,196.968 341.457,196.641C343.366,196.474 345.802,197.023 347.205,198.198C348.165,199.002 348.529,202.057 347.775,203.01C346.652,204.428 344.283,205.668 342.486,205.613C331.629,205.282 320.784,204.561 309.47,203.516C309.004,202.035 309.002,201.009 309.001,199.982Z" style="fill:rgb(205,112,46);fill-rule:nonzero;"/>
    <path d="M308.547,199.911C309.002,201.009 309.004,202.035 309.007,203.445C295.317,204.198 281.625,204.567 267.021,204.935C263.056,204.87 260.004,204.806 256.959,204.391C256.957,202.88 256.949,201.719 256.94,200.559C270.321,200.352 283.702,200.146 297.544,199.846C301.368,199.781 304.73,199.811 308.547,199.911Z" style="fill:rgb(199,109,45);fill-rule:nonzero;"/>
    <path d="M290.305,236.154C290.008,234.897 290.005,233.845 289.996,232.399C299.243,234.707 308.466,237.525 317.772,240.039C320.532,240.784 323.581,240.418 326.39,241.044C328.169,241.441 330.078,242.43 331.282,243.746C331.903,244.424 331.526,247.308 330.877,247.603C329.253,248.341 327.014,248.793 325.378,248.261C314.992,244.885 304.703,241.209 294.381,237.635C293.124,237.2 291.86,236.784 290.305,236.154Z" style="fill:rgb(190,102,43);fill-rule:nonzero;"/>
    <path d="M109.871,139.592C110.027,141.054 109.994,142.249 109.939,143.895C101.797,138.28 93.734,132.131 85.516,126.201C83.417,124.687 80.57,124.186 78.539,122.611C77.022,121.434 75.965,119.379 75.329,117.503C75.102,116.832 76.741,114.671 77.476,114.697C79.464,114.767 82.393,115.01 83.24,116.304C89.923,126.509 101.218,131.278 109.871,139.592Z" style="fill:rgb(57,111,183);fill-rule:nonzero;"/>
    <path d="M256.492,200.469C256.949,201.719 256.957,202.88 256.499,204.457C249.356,204.917 242.68,204.962 236.005,205.007C236.325,202.777 236.644,200.548 236.949,197.944C246.022,196.02 255.11,194.471 264.776,193.095C265.578,193.527 265.801,193.787 266.024,194.046C264.585,195.05 263.27,196.579 261.682,196.955C257.515,197.943 253.229,198.428 248.384,199.15C247.668,199.259 247.456,199.356 247.466,199.401C247.521,199.632 247.633,199.851 247.725,200.073C250.498,200.175 253.271,200.277 256.492,200.469Z" style="fill:rgb(216,142,57);fill-rule:nonzero;"/>
    <path d="M168.68,115.083C165.979,105.853 163.373,96.593 160.524,87.409C159.612,84.472 157.755,81.823 156.902,78.877C156.36,77.008 156.507,74.719 157.091,72.851C157.322,72.115 160.153,71.273 160.796,71.773C162.191,72.857 163.48,74.652 163.865,76.37C166.04,86.058 167.901,95.817 169.949,105.535C170.428,107.805 171.218,110.01 171.762,112.915C170.666,114.085 169.673,114.584 168.68,115.083Z" style="fill:rgb(59,112,180);fill-rule:nonzero;"/>
    <path d="M166.877,177.222C160.286,169.1 153.696,160.978 147.077,152.157C147.792,149.77 148.536,148.083 149.28,146.395C156.095,154.965 162.91,163.535 169.865,172.723C168.962,174.635 167.919,175.929 166.877,177.222Z" style="fill:rgb(77,136,198);fill-rule:nonzero;"/>
    <path d="M133.549,133.897C126.908,125.946 122.116,116.375 112.745,110.779C111.32,109.929 110.612,107.218 110.403,105.278C110.304,104.357 112.245,102.301 113.118,102.379C115.064,102.551 117.692,103.198 118.688,104.607C124.887,113.386 130.712,122.428 136.451,131.749C135.344,132.709 134.446,133.303 133.549,133.897Z" style="fill:rgb(55,106,173);fill-rule:nonzero;"/>
    <path d="M212.605,281.417C213.712,280.987 214.861,280.996 216.436,281.01C218.718,288.157 220.574,295.297 222.65,302.736C222.927,303.795 222.985,304.556 223.121,305.967C223.456,307.106 223.713,307.594 223.97,308.083C224.603,310.795 225.235,313.508 225.454,316.609C223.646,317.002 222.251,317.006 220.857,317.01C219.219,312.972 220.192,307.684 215.132,305.241C214.635,305.001 214.212,303.594 214.446,303.003C217.369,295.629 212.902,288.923 212.605,281.417Z" style="fill:rgb(212,128,52);fill-rule:nonzero;"/>
    <path d="M178.495,274.738C177.272,275.034 176.246,275.03 174.842,275.039C177.177,261.242 179.889,247.431 182.812,233.311C184.053,232.997 185.084,232.993 186.5,232.985C184.154,246.799 181.423,260.619 178.495,274.738Z" style="fill:rgb(56,103,166);fill-rule:nonzero;"/>
    <path d="M258.344,133.933C257.228,133.43 256.392,132.742 255.22,132.005C259.565,125.747 264.326,119.596 268.89,113.303C270.909,110.519 272.342,107.304 274.413,104.566C275.401,103.259 277.162,102.24 278.763,101.822C279.532,101.622 281.545,103.076 281.587,103.856C281.674,105.469 281.278,107.518 280.275,108.712C274.245,115.891 267.982,122.875 261.809,129.934C260.719,131.18 259.685,132.476 258.344,133.933Z" style="fill:rgb(193,107,45);fill-rule:nonzero;"/>
    <path d="M139.739,267.67C140.485,265.539 141.148,263.374 142.005,261.289C142.606,259.826 143.254,258.287 144.258,257.101C148.493,252.094 152.869,247.206 157.867,242.109C159.903,242.379 161.265,242.814 162.628,243.25C159.208,249.199 155.901,255.217 152.3,261.055C151.231,262.789 149.396,264.084 147.804,265.454C146.472,266.598 144.982,267.558 142.916,268.785C141.427,268.537 140.583,268.103 139.739,267.67Z" style="fill:rgb(63,115,180);fill-rule:nonzero;"/>
    <path d="M232.808,128.919C238.303,117.012 243.797,105.104 249.722,93.259C251.092,93.878 252.031,94.435 252.97,94.992C247.518,106.897 242.067,118.801 236.168,130.689C234.75,130.088 233.779,129.503 232.808,128.919Z" style="fill:rgb(200,111,46);fill-rule:nonzero;"/>
    <path d="M266.433,194.016C265.801,193.787 265.578,193.527 265.145,193.119C266.484,192.237 267.964,191.156 269.595,190.827C281.089,188.511 292.615,186.349 304.793,184.271C305.956,186.086 306.457,187.767 306.957,189.449C304.555,189.57 302.154,189.692 299.379,189.961C290.66,191.575 282.333,193.162 273.957,194.428C271.66,194.775 269.217,194.16 266.433,194.016Z" style="fill:rgb(199,115,47);fill-rule:nonzero;"/>
    <path d="M138.323,275.118C135.765,278.564 133.259,282.05 130.635,285.446C127.849,289.052 124.474,292.14 123.777,297.176C123.571,298.664 120.69,300.344 118.759,300.821C117.598,301.107 114.946,299.454 114.689,298.291C114.349,296.756 115.179,293.979 116.41,293.239C124.185,288.565 128.437,280.735 134.81,274.128C136.407,274.378 137.365,274.748 138.323,275.118Z" style="fill:rgb(57,109,178);fill-rule:nonzero;"/>
    <path d="M164.818,253.28C165.946,253.362 166.844,253.713 168.105,254.15C164.454,265.979 160.442,277.721 155.801,289.73C154.129,290.002 153.085,290.006 152.041,290.01C156.224,277.856 160.406,265.702 164.818,253.28Z" style="fill:rgb(54,101,165);fill-rule:nonzero;"/>
    <path d="M267.006,293.998C259.702,284.917 252.399,275.835 245.23,266.295C246.2,265.225 247.035,264.615 247.87,264.005C255.532,273.045 263.193,282.085 270.832,291.737C269.541,292.898 268.274,293.448 267.006,293.998Z" style="fill:rgb(199,113,46);fill-rule:nonzero;"/>
    <path d="M277.896,249.245C267.44,243.859 256.984,238.473 246.306,232.571C246.378,231.093 246.672,230.13 246.965,229.168C257.746,234.614 268.527,240.061 279.166,245.895C278.648,247.27 278.272,248.257 277.896,249.245Z" style="fill:rgb(199,120,49);fill-rule:nonzero;"/>
    <path d="M232.579,129.17C233.779,129.503 234.75,130.088 235.928,130.943C231.569,140.961 227.046,150.728 222.378,160.426C221.88,161.459 220.538,162.085 219.23,162.95C218.874,163 218.391,163.034 218.151,162.997C222.725,151.781 227.538,140.6 232.579,129.17Z" style="fill:rgb(202,120,50);fill-rule:nonzero;"/>
    <path d="M233.984,207.161C244.05,209.091 254.117,211.022 264.592,212.935C267.143,213.48 269.285,214.043 271.712,215.223C271.96,216.656 271.924,217.472 271.887,218.287C271.168,218.274 270.448,218.261 269.369,218.276C256.834,216.111 244.659,213.917 232.431,211.132C232.913,209.414 233.448,208.288 233.984,207.161Z" style="fill:rgb(195,112,46);fill-rule:nonzero;"/>
    <path d="M151.868,290.327C153.085,290.006 154.129,290.002 155.564,289.994C154.332,294.573 152.491,299.094 151.168,303.761C150.376,306.557 150.653,309.647 149.956,312.483C149.502,314.331 148.5,316.387 147.081,317.518C146.316,318.128 143.149,317.38 142.827,316.556C142.078,314.637 141.682,312.01 142.425,310.194C144.086,306.133 146.65,302.453 148.611,298.501C149.857,295.99 150.681,293.27 151.868,290.327Z" style="fill:rgb(60,115,183);fill-rule:nonzero;"/>
    <path d="M83.066,160.828C93.552,165.046 104.038,169.263 114.762,174.123C115.007,175.803 115.015,176.84 115.022,177.877C104.125,173.534 93.229,169.192 82.242,164.258C82.457,162.72 82.761,161.774 83.066,160.828Z" style="fill:rgb(50,97,161);fill-rule:nonzero;"/>
    <path d="M120.526,239.58C120.93,240.401 120.978,241.343 121.05,242.755C117.222,245.482 113.243,247.551 109.563,250.059C107.087,251.747 105.206,254.308 102.731,256.001C100.981,257.198 98.706,258.025 96.619,258.136C95.798,258.18 93.892,255.544 94.163,254.624C94.697,252.812 96.066,250.65 97.688,249.855C105.068,246.238 112.657,243.046 120.526,239.58Z" style="fill:rgb(57,111,183);fill-rule:nonzero;"/>
    <path d="M133.346,134.281C134.446,133.303 135.344,132.709 136.519,132.081C140.468,132.625 142.565,134.521 143.811,138.268C144.737,141.053 147.247,143.311 149.165,146.099C148.536,148.083 147.792,149.77 146.971,151.841C142.873,148.466 138.636,144.905 134.949,140.844C133.652,139.416 133.706,136.761 133.346,134.281Z" style="fill:rgb(64,120,190);fill-rule:nonzero;"/>
    <path d="M203.348,224.924C203.055,220.841 200.296,223.174 198.29,223.005C197.591,222.33 197.255,221.642 196.868,220.669C199.412,219.783 202.009,219.181 204.833,218.256C207.677,220.675 210.293,223.416 212.973,226.49C212.717,227.966 211.807,229.373 212.18,230.209C213.991,234.275 216.146,238.188 218.258,242.516C217.36,242.948 216.384,243.02 214.917,243.128C211.99,238.354 209.643,233.494 207.065,228.759C206.275,227.309 204.853,226.204 203.348,224.924Z" style="fill:rgb(202,123,51);fill-rule:nonzero;"/>
    <path d="M292.325,275.026C293.026,274.174 293.948,273.575 295.168,272.816C300.509,275.348 305.691,277.818 310.517,280.854C312.204,281.914 313.347,284.251 314.045,286.247C314.288,286.942 312.395,289.316 311.56,289.274C309.421,289.167 306.865,288.683 305.304,287.368C300.831,283.599 296.769,279.343 292.325,275.026Z" style="fill:rgb(206,133,54);fill-rule:nonzero;"/>
    <path d="M272.422,174.92C273.435,175.722 274.082,176.57 274.86,177.714C265.224,181.882 255.456,185.753 245.399,189.303C247.103,186.615 249.095,184.249 251.087,181.884C256.374,180.199 261.666,178.531 266.945,176.819C268.667,176.261 270.352,175.586 272.422,174.92Z" style="fill:rgb(202,120,50);fill-rule:nonzero;"/>
    <path d="M115.328,178.066C115.015,176.84 115.007,175.803 115.002,174.377C115.671,174.059 116.338,174.131 117.498,174.563C123.815,177.189 129.621,179.504 135.488,181.654C136.167,181.903 137.184,181.234 138.044,180.99C140.957,182.981 146.197,182.882 144.866,189.057C135.092,185.734 125.363,181.995 115.328,178.066Z" style="fill:rgb(58,107,172);fill-rule:nonzero;"/>
    <path d="M167.042,218.854C167.277,218.087 167.512,217.321 167.874,216.277C168.806,215.746 169.612,215.492 170.717,215.369C171.025,215.675 171.034,215.85 171.042,216.024C170.371,217.79 169.7,219.556 169.021,221.687C161.27,228.379 153.527,234.706 145.459,241.156C144.88,240.32 144.627,239.36 144.109,238.133C151.172,232.127 158.499,226.387 165.927,220.322C166.026,219.997 166.007,220.03 166.259,219.94C166.689,219.518 166.866,219.186 167.042,218.854Z" style="fill:rgb(55,101,166);fill-rule:nonzero;"/>
    <path d="M272.172,218.447C271.924,217.472 271.96,216.656 272.002,215.434C274.457,215.343 276.9,215.841 279.358,215.934C283.216,216.079 287.112,215.678 290.938,216.05C292.986,216.249 295.606,217.1 296.654,218.585C297.288,219.483 295.405,222.157 293.955,224.111C291.579,223.705 289.902,223.22 288.226,222.735C288.226,222.735 288.064,222.768 287.953,222.451C283.558,221.18 279.273,220.227 274.988,219.273C274.144,219.051 273.3,218.83 272.172,218.447Z" style="fill:rgb(218,137,53);fill-rule:nonzero;"/>
    <path d="M215.752,129.283C216.558,129.584 217.153,130.184 218.012,130.96C215.971,140.223 213.666,149.309 210.785,158.712C208.117,159.69 206.025,160.351 203.933,161.012C203.957,159.62 203.982,158.229 204.493,156.423C210.201,156.355 209.173,152.058 210.054,149.179C211.883,142.647 213.712,136.115 215.752,129.283Z" style="fill:rgb(212,128,52);fill-rule:nonzero;"/>
    <path d="M82.804,160.601C82.761,161.774 82.457,162.72 82.002,164.015C74.974,162.16 68.002,160.195 61.291,157.564C59.819,156.988 59.277,154.041 58.307,152.186C60.289,151.794 62.666,150.501 64.184,151.167C70.445,153.912 76.446,157.252 82.804,160.601Z" style="fill:rgb(55,106,173);fill-rule:nonzero;"/>
    <path d="M231.878,227.058C228.016,224.676 224.155,222.295 220.066,219.681C221.217,216.888 222.595,214.327 224.31,211.397C225.085,211.014 225.524,211 225.963,210.986C227.72,212.002 229.477,213.018 231.582,214.126C231.431,215.26 230.932,216.301 230.224,217.572C232.441,219.835 234.867,221.867 237.537,224.345C235.813,225.546 233.846,226.302 231.878,227.058Z" style="fill:rgb(221,151,62);fill-rule:nonzero;"/>
    <path d="M304.044,128.025C297.624,132.973 291.204,137.921 284.151,142.794C282.955,141.688 282.393,140.656 281.83,139.625C287.988,134.788 294.145,129.952 300.776,125.297C302.18,126.327 303.112,127.176 304.044,128.025Z" style="fill:rgb(204,125,50);fill-rule:nonzero;"/>
    <path d="M209.704,148.962C209.173,152.058 210.201,156.355 204.587,156.015C204.831,147.604 205.466,139.186 206.572,130.362C207.993,129.964 208.944,129.972 209.896,129.979C209.715,136.234 209.534,142.489 209.704,148.962Z" style="fill:rgb(200,116,50);fill-rule:nonzero;"/>
    <path d="M97.354,204.202C97.316,202.969 97.634,201.931 97.951,200.568C106.399,200.351 114.848,200.461 123.655,200.767C123.037,201.948 122.062,202.933 121.08,204.223C113.286,204.484 105.499,204.441 97.354,204.202Z" style="fill:rgb(52,98,159);fill-rule:nonzero;"/>
    <path d="M238.935,305.379C239.583,304.757 240.126,304.498 240.957,304.15C243.759,307.11 246.641,309.939 248.641,313.294C249.724,315.109 249.905,317.999 249.302,320.055C249,321.086 245.552,322.297 244.388,321.712C242.708,320.868 241.39,318.619 240.683,316.689C239.758,314.167 239.58,311.371 238.933,308.348C238.799,307.25 238.815,306.496 238.935,305.379Z" style="fill:rgb(218,137,53);fill-rule:nonzero;"/>
    <path d="M168.708,115.505C169.673,114.584 170.666,114.085 171.832,113.29C176.219,113.296 177.355,115.516 176.999,119.626C176.729,122.754 177.69,125.989 178.093,129.577C176.298,129.657 174.511,129.335 172.33,129.018C170.869,124.657 169.803,120.291 168.708,115.505Z" style="fill:rgb(71,129,197);fill-rule:nonzero;"/>
    <path d="M285.072,161.151C278.336,165.102 271.601,169.054 264.252,172.921C263.427,171.89 263.215,170.944 263.003,169.998C270.041,165.892 277.078,161.787 284.515,158.034C284.967,159.308 285.019,160.229 285.072,161.151Z" style="fill:rgb(230,191,75);fill-rule:nonzero;"/>
    <path d="M251.086,181.705C249.095,184.249 247.103,186.615 245.037,189.315C242.21,190.688 239.455,191.726 236.332,192.777C236.309,190.482 236.655,188.174 237.001,185.467C241.088,182.723 245.173,180.379 249.656,178.302C250.396,179.436 250.738,180.303 251.08,181.171C251.08,181.171 251.086,181.527 251.086,181.705Z" style="fill:rgb(217,149,59);fill-rule:nonzero;"/>
    <path d="M209.971,129.577C208.944,129.972 207.993,129.964 206.685,129.94C206.045,125.382 205.549,120.838 205.592,116.299C205.607,114.736 206.685,112.915 207.824,111.741C208.416,111.131 210.934,111.214 211.295,111.79C212.16,113.171 212.789,115.101 212.572,116.68C211.996,120.882 210.922,125.014 209.971,129.577Z" style="fill:rgb(217,149,59);fill-rule:nonzero;"/>
    <path d="M220.836,317.423C222.251,317.006 223.646,317.002 225.457,316.99C227.003,319.348 228.395,321.63 229.193,324.103C230.108,326.941 228.965,329.004 225.804,329.48C222.543,329.97 220.61,328.504 220.466,325.228C220.359,322.774 220.683,320.301 220.836,317.423Z" style="fill:rgb(200,111,46);fill-rule:nonzero;"/>
    <path d="M247.879,263.595C247.035,264.615 246.2,265.225 245.091,265.986C238.631,266.002 238.729,260.748 237.249,256.156C238.494,255.02 239.706,254.533 240.919,254.046C244.157,256.394 249.505,257.134 247.879,263.595Z" style="fill:rgb(224,157,61);fill-rule:nonzero;"/>
    <path d="M350.039,241.332C351.097,241.573 352.502,241.964 352.775,242.749C354.812,248.612 349.59,259.286 343.209,261.956C345.182,255.223 347.522,248.444 350.039,241.332Z" style="fill:rgb(218,152,64);fill-rule:nonzero;"/>
    <path d="M305.932,120.862C307.271,119.025 308.315,116.812 310.036,115.462C311.659,114.187 313.973,113.369 316.028,113.271C316.875,113.23 318.849,115.97 318.545,116.787C317.821,118.728 316.298,120.61 314.619,121.887C313.026,123.098 310.825,123.511 308.455,124.172C307.322,123 306.627,121.931 305.932,120.862Z" style="fill:rgb(223,167,66);fill-rule:nonzero;"/>
    <path d="M267.04,294.395C268.274,293.448 269.541,292.898 270.985,292.026C271.32,291.747 271.482,291.781 271.638,291.833C275.147,292.992 278.406,294.72 277.285,299.038C276.887,300.569 274.257,302.688 272.819,302.562C268.503,302.184 266.959,298.905 267.04,294.395Z" style="fill:rgb(190,102,43);fill-rule:nonzero;"/>
    <path d="M155.475,205.534C154.698,202.974 154.363,200.534 154.029,197.72C157.372,197.875 160.715,198.402 164.71,199.161C165.896,201.244 166.431,203.094 166.702,204.98C165.989,205.268 165.539,205.52 165.09,205.773C162.032,205.733 158.975,205.693 155.475,205.534Z" style="fill:rgb(64,115,182);fill-rule:nonzero;"/>
    <path d="M221.123,228.677C224.161,230.348 226.941,232.376 229.592,234.695C228.672,236.318 227.88,237.651 227.088,238.983C228.376,239.65 229.665,240.318 230.906,241.328C229.624,242.42 228.389,243.167 227.153,243.915C223.916,239.972 220.678,236.029 217.318,231.759C218.419,230.633 219.642,229.834 221.123,228.677Z" style="fill:rgb(227,172,68);fill-rule:nonzero;"/>
    <path d="M227.267,244.232C228.389,243.167 229.624,242.42 231.168,241.279C231.827,240.885 232.179,240.883 232.531,240.882C235.225,245.072 237.92,249.261 240.767,253.749C239.706,254.533 238.494,255.02 237.109,255.808C233.752,252.256 230.566,248.402 227.267,244.232Z" style="fill:rgb(206,128,52);fill-rule:nonzero;"/>
    <path d="M339.822,268.273C340.374,270.065 341.225,272.193 340.93,274.149C340.065,279.878 335.245,285.162 330.296,285.998C333.136,280.177 336.366,274.353 339.822,268.273Z" style="fill:rgb(218,152,64);fill-rule:nonzero;"/>
    <path d="M278.099,249.516C278.272,248.257 278.648,247.27 279.333,246.169C283.16,247.332 286.677,248.608 290.606,250.359C290.992,253.414 290.967,255.993 290.942,258.572C289.521,257.957 287.922,257.58 286.715,256.679C283.813,254.513 281.095,252.101 278.099,249.516Z" style="fill:rgb(218,137,53);fill-rule:nonzero;"/>
    <path d="M241.661,238.97C238.706,236.82 235.988,234.852 236.161,230.418C239.263,227.941 241.208,229.636 242.787,231.979C243.06,232.433 243.557,232.72 244.031,233.019C244.008,233.031 243.989,232.983 243.989,232.983C245.226,234.361 246.463,235.739 247.923,237.346C247.79,238.665 247.433,239.756 246.902,241.246C245.14,240.8 243.551,239.954 241.661,238.97Z" style="fill:rgb(204,125,50);fill-rule:nonzero;"/>
    <path d="M253.157,94.71C252.031,94.435 251.092,93.878 249.975,93.025C250.801,89.384 251.803,86.04 253.37,82.355C256.272,82.343 258.61,82.67 260.947,82.997C258.413,86.807 255.879,90.617 253.157,94.71Z" style="fill:rgb(218,137,53);fill-rule:nonzero;"/>
    <path d="M159.471,211.757C159.016,210.756 159.011,209.79 159.008,208.461C160.746,207.736 162.482,207.374 164.987,207.011C167.838,206.34 169.919,205.67 172.002,204.998C172.004,204.996 172.018,204.982 172.018,204.982C173.206,205.625 174.394,206.269 175.582,206.912C174.881,208.162 174.463,209.811 173.407,210.558C172.154,211.444 170.353,211.554 168.401,212.007C168.012,212.012 168.002,212.002 168.088,211.729C166.595,211.327 165.016,211.197 163.438,211.068C162.265,211.309 161.093,211.551 159.471,211.757Z" style="fill:rgb(58,107,172);fill-rule:nonzero;"/>
    <path d="M281.536,139.816C282.393,140.656 282.955,141.688 283.831,142.902C280.42,145.784 276.694,148.483 272.614,151.161C271.452,150.499 270.644,149.858 269.532,149.154C273.232,146.063 277.237,143.035 281.536,139.816Z" style="fill:rgb(195,112,46);fill-rule:nonzero;"/>
    <path d="M307.252,189.649C306.457,187.767 305.956,186.086 305.169,184.163C305.223,183.571 305.54,182.947 305.907,182.916C308.34,182.708 310.822,182.366 313.193,182.713C313.702,182.788 314.521,186.451 313.999,186.835C312.126,188.217 309.739,188.902 307.252,189.649Z" style="fill:rgb(188,93,40);fill-rule:nonzero;"/>
    <path d="M251.401,181.016C250.738,180.303 250.396,179.436 250.007,178.22C254.081,175.297 258.201,172.721 262.662,170.072C263.215,170.944 263.427,171.89 263.893,172.961C260.006,175.677 255.865,178.269 251.401,181.016Z" style="fill:rgb(223,167,66);fill-rule:nonzero;"/>
    <path d="M243.012,231.812C241.208,229.636 239.263,227.941 236.038,230.127C234.607,229.485 233.403,228.555 232.039,227.341C233.846,226.302 235.813,225.546 237.883,224.46C240.774,225.703 243.563,227.275 246.659,229.008C246.672,230.13 246.378,231.093 246.021,232.352C245.474,232.586 244.99,232.523 244.247,232.722C243.989,232.983 244.008,233.031 244.077,232.705C243.768,232.189 243.39,232.001 243.012,231.812Z" style="fill:rgb(216,142,57);fill-rule:nonzero;"/>
    <path d="M162.889,243.091C161.265,242.814 159.903,242.379 158.114,241.892C159.863,238.906 162.038,235.971 164.497,232.864C165.704,233.456 166.626,234.221 167.916,235.066C166.571,237.74 164.861,240.336 162.889,243.091Z" style="fill:rgb(55,101,166);fill-rule:nonzero;"/>
    <path d="M166.977,177.522C167.919,175.929 168.962,174.635 170.079,172.974C171.694,174.508 173.234,176.409 174.903,178.613C173.89,179.952 172.749,180.988 171.207,182.053C169.564,180.661 168.321,179.242 166.977,177.522Z" style="fill:rgb(71,129,197);fill-rule:nonzero;"/>
    <path d="M203.729,161.323C206.025,160.351 208.117,159.69 210.579,159.013C210.346,161.429 209.741,163.861 209.011,166.657C207.205,166.725 205.525,166.428 203.484,166.072C203.257,164.553 203.391,163.094 203.729,161.323Z" style="fill:rgb(221,151,62);fill-rule:nonzero;"/>
    <path d="M287.848,153.452C290.084,151.334 292.676,150.427 294.471,153.489C295.903,155.93 294.95,158.288 291.402,158.816C289.916,156.799 288.882,155.126 287.848,153.452Z" style="fill:rgb(223,167,66);fill-rule:nonzero;"/>
    <path d="M232.841,240.817C232.179,240.883 231.827,240.885 231.214,240.935C229.665,240.318 228.376,239.65 227.088,238.983C227.88,237.651 228.672,236.318 229.866,234.924C231.558,236.334 232.846,237.806 234.158,239.65C233.838,240.264 233.495,240.508 232.841,240.817Z" style="fill:rgb(230,191,75);fill-rule:nonzero;"/>
    <path d="M166.966,204.945C166.431,203.094 165.896,201.244 165.102,199.141C164.856,198.482 164.869,198.076 164.878,197.364C166.717,197.455 168.56,197.852 170.701,198.126C171.332,200.066 171.667,202.129 172.01,204.587C172.018,204.982 172.004,204.996 171.583,204.997C169.764,204.98 168.365,204.962 166.966,204.945Z" style="fill:rgb(58,107,172);fill-rule:nonzero;"/>
    <path d="M261.115,82.742C258.61,82.67 256.272,82.343 253.54,82.017C254.602,80.584 256.058,79.149 257.514,77.714C258.77,79.305 260.026,80.896 261.115,82.742Z" style="fill:rgb(202,120,50);fill-rule:nonzero;"/>
    <path d="M234.65,80.318C233.134,78.054 231.948,75.633 230.42,73.126C231.874,72.816 234.476,71.739 235.311,72.529C237.714,74.801 237.664,77.719 234.65,80.318Z" style="fill:rgb(188,93,40);fill-rule:nonzero;"/>
    <path d="M291.305,258.666C290.967,255.993 290.992,253.414 291.009,250.395C292.668,251.444 294.336,252.933 296.003,254.422C294.558,255.868 293.112,257.314 291.305,258.666Z" style="fill:rgb(199,120,49);fill-rule:nonzero;"/>
    <path d="M318.956,301.272C322.978,304.19 318.39,305.446 317.546,307.353C317.131,308.289 314.713,308.337 313.12,308.476C314.921,305.933 316.803,303.701 318.956,301.272Z" style="fill:rgb(218,152,64);fill-rule:nonzero;"/>
    <path d="M348.577,284.938C345.187,280.96 346.083,278.902 352.597,276.054C351.576,278.91 350.206,281.82 348.577,284.938Z" style="fill:rgb(218,152,64);fill-rule:nonzero;"/>
    <path d="M305.635,120.998C306.627,121.931 307.322,123 308.166,124.426C307.083,125.791 305.852,126.799 304.332,127.916C303.112,127.176 302.18,126.327 301.102,125.194C302.416,123.651 303.878,122.392 305.635,120.998Z" style="fill:rgb(216,142,57);fill-rule:nonzero;"/>
    <path d="M287.565,153.62C288.882,155.126 289.916,156.799 291.022,158.839C289.341,159.831 287.587,160.456 285.452,161.116C285.019,160.229 284.967,159.308 284.867,157.927C285.641,156.241 286.462,155.014 287.565,153.62Z" style="fill:rgb(227,172,68);fill-rule:nonzero;"/>
    <path d="M138.58,274.934C137.365,274.748 136.407,274.378 135.071,273.929C136.188,271.904 137.684,269.958 139.46,267.841C140.583,268.103 141.427,268.537 142.639,268.987C141.617,270.919 140.227,272.835 138.58,274.934Z" style="fill:rgb(56,103,166);fill-rule:nonzero;"/>
    <path d="M330.482,157.232C329.744,155.197 329.366,153.109 328.98,150.626C330.49,150.847 332.006,151.464 333.522,152.08C332.628,153.78 331.735,155.479 330.482,157.232Z" style="fill:rgb(188,93,40);fill-rule:nonzero;"/>
    <path d="M301.617,319.073C301.942,320.401 302.525,322.604 301.853,323.098C300.798,323.873 298.896,323.492 297.185,323.323C298.449,321.758 299.881,320.47 301.617,319.073Z" style="fill:rgb(218,152,64);fill-rule:nonzero;"/>
    <path d="M327.998,288.847C331.262,291.794 328.084,292.002 325.856,292.843C326.235,291.578 327,290.314 327.998,288.847Z" style="fill:rgb(218,152,64);fill-rule:nonzero;"/>
    <path d="M163.395,211.569C165.016,211.197 166.595,211.327 168.086,211.728C166.637,212.307 165.275,212.615 163.575,212.996C163.275,212.737 163.314,212.403 163.395,211.569Z" style="fill:rgb(53,100,164);fill-rule:nonzero;"/>
    <path d="M166.702,204.98C168.365,204.962 169.764,204.98 171.581,204.999C169.919,205.67 167.838,206.34 165.37,207.001C165.011,206.789 165.04,206.587 165.079,206.079C165.539,205.52 165.989,205.268 166.702,204.98Z" style="fill:rgb(52,98,159);fill-rule:nonzero;"/>
    <path d="M146.139,200.235C147.511,200.08 148.884,200.215 150.258,200.349C150.267,200.744 150.276,201.139 150.285,201.534C149.047,201.534 147.809,201.534 146.31,201.313C146.08,200.903 146.11,200.713 146.139,200.235Z" style="fill:rgb(52,98,159);fill-rule:nonzero;"/>
    <path d="M275.372,337.885C277.252,341.382 274.164,339.371 272.802,339.872C273.287,339.209 274.169,338.577 275.372,337.885Z" style="fill:rgb(218,152,64);fill-rule:nonzero;"/>
    <path d="M171.013,222.31C171.668,221.242 172.367,220.421 173.065,219.599C173.322,219.793 173.58,219.988 173.837,220.182C173.156,221.076 172.475,221.97 171.51,222.945C171.227,223.025 171.057,222.556 171.013,222.31Z" style="fill:rgb(55,101,166);fill-rule:nonzero;"/>
    <path d="M184.252,221.037C184.612,220.465 185.201,219.878 185.79,219.29C185.699,219.827 185.608,220.364 185.23,220.959C184.943,221.017 184.482,221.021 184.252,221.037Z" style="fill:rgb(56,103,166);fill-rule:nonzero;"/>
    <path d="M93.181,204.114C93.566,203.844 94.121,203.725 94.836,203.795C94.448,204.078 93.899,204.172 93.181,204.114Z" style="fill:rgb(52,98,159);fill-rule:nonzero;"/>
    <path d="M183.778,228.058C183.912,228.236 183.782,228.47 183.457,228.816C183.175,228.615 183.259,228.344 183.778,228.058Z" style="fill:rgb(56,103,166);fill-rule:nonzero;"/>
    <path d="M219.193,130.802C219.074,130.63 219.187,130.434 219.476,130.155C219.675,130.328 219.599,130.563 219.193,130.802Z" style="fill:rgb(193,107,45);fill-rule:nonzero;"/>
    <path d="M223.109,117.869C222.997,117.781 223.039,117.607 223.177,117.325C223.378,117.399 223.375,117.588 223.109,117.869Z" style="fill:rgb(193,107,45);fill-rule:nonzero;"/>
    <path d="M142.784,96.796C142.673,96.765 142.439,96.516 142.14,96.01C142.269,96.029 142.465,96.303 142.784,96.796Z" style="fill:rgb(54,101,165);fill-rule:nonzero;"/>
    <path d="M185.369,186.143C185.228,185.57 185.391,184.989 185.778,184.197C186.259,184.205 186.516,184.425 186.909,184.861C186.587,185.43 186.13,185.782 185.369,186.143Z" style="fill:rgb(66,110,171);fill-rule:nonzero;"/>
    <path d="M226.394,210.998C225.524,211 225.085,211.014 224.317,211.029C221.987,210.448 219.985,209.866 217.623,209.179C222.473,207.695 226.895,206.342 231.723,205.043C232.548,205.71 232.966,206.323 233.684,207.048C233.448,208.288 232.913,209.414 232.178,210.804C230.26,211.048 228.543,211.029 226.394,210.998Z" style="fill:rgb(206,133,54);fill-rule:nonzero;"/>
    <path d="M171.355,216.006C171.034,215.85 171.025,215.675 171.01,215.238C171.801,214.917 172.599,214.859 173.397,214.8C172.821,215.196 172.244,215.592 171.355,216.006Z" style="fill:rgb(58,107,172);fill-rule:nonzero;"/>
    <path d="M179.422,183.231C178.398,182.41 177.6,181.372 176.802,180.333C177.395,180.047 177.987,179.761 178.58,179.476C178.936,180.655 179.292,181.834 179.422,183.231Z" style="fill:rgb(54,101,165);fill-rule:nonzero;"/>
    <path d="M247.862,199.866C247.633,199.851 247.521,199.632 247.466,199.401C247.456,199.356 247.668,199.259 247.977,199.189C248.176,199.192 248,199.658 247.862,199.866Z" style="fill:rgb(158,94,45);fill-rule:nonzero;"/>
</svg>
